<svg width="47" height="47" viewBox="0 0 47 47" fill="none" xmlns="http://www.w3.org/2000/svg">
<rect width="47" height="47" rx="4.606" fill="#54BE73"/>
<path d="M23.579 9C22.0196 11.0286 21.0884 13.5661 21.0884 16.3202C21.0884 19.0743 22.016 21.6119 23.579 23.6404C25.1383 21.6119 26.0696 19.0779 26.0696 16.3202C26.0696 13.5625 25.1419 11.0286 23.579 9Z" fill="white"/>
<path d="M27.0841 16.3672C27.0768 18.8506 26.3766 21.2221 25.0591 23.294C26.9577 22.7923 28.7553 21.8141 30.246 20.3233C30.3652 20.2042 30.4843 20.0815 30.5962 19.9551C32.7114 17.6486 29.3978 14.3134 27.0804 16.3672H27.0841Z" fill="white"/>
<path d="M20.0778 16.5151C20.0381 16.479 19.9984 16.4393 19.9587 16.4032C17.6377 14.2772 14.2772 17.6377 16.4032 19.9587C16.5187 20.0814 16.6342 20.2041 16.7534 20.3268C18.291 21.8645 20.1536 22.8571 22.1208 23.3444C20.8105 21.305 20.1103 18.9696 20.0742 16.5187L20.0778 16.5151Z" fill="white"/>
<path d="M9.52368 26.6437C18.0315 26.6437 25.312 31.8848 28.3224 39.3133C28.3476 38.974 28.3621 38.6275 28.3621 38.281C28.3621 30.394 21.9695 24.0015 14.0826 24.0015C10.7221 24.0015 7.63227 25.1674 5.1958 27.1093C6.59271 26.8061 8.03654 26.6401 9.52368 26.6401V26.6437Z" fill="white"/>
<path d="M37.4766 26.6437C28.9688 26.6437 21.6883 31.8848 18.6779 39.3133C18.6526 38.974 18.6382 38.6275 18.6382 38.281C18.6382 30.394 25.0307 24.0015 32.9177 24.0015C36.2782 24.0015 39.368 25.1674 41.8045 27.1093C40.4075 26.8061 38.9637 26.6401 37.4766 26.6401V26.6437Z" fill="white"/>
</svg>
