<svg width="64" height="64" viewBox="0 0 64 64" fill="none" xmlns="http://www.w3.org/2000/svg">
<path d="M0 26C0 11.6406 11.6406 0 26 0H38C52.3594 0 64 11.6406 64 26V64H26C11.6406 64 0 52.3594 0 38V26Z" fill="#303030"/>
<path d="M26.0137 42.4023C27.7757 43.4185 29.82 43.9999 32.0002 43.9999C38.6276 43.9999 44 38.6274 44 32C44 25.3726 38.6274 20 32 20C25.3726 20 20 25.3726 20 32C20 34.1802 20.5814 36.2245 21.5976 37.9865L21.5984 37.988C21.6983 38.1611 21.7483 38.2478 21.7709 38.3295C21.7919 38.4057 21.7989 38.4737 21.7935 38.5526C21.7878 38.6363 21.7589 38.723 21.7017 38.8945L21.6996 38.9009L20.6745 41.9762L20.6737 41.9786C20.4571 42.6284 20.3487 42.9534 20.4259 43.1698C20.4931 43.3582 20.6416 43.5066 20.8301 43.5738C21.0467 43.6511 21.3727 43.5425 22.0241 43.3254L25.0994 42.3003L25.1015 42.2996C25.2757 42.2415 25.3628 42.2125 25.4472 42.2067C25.5261 42.2013 25.5944 42.2081 25.6706 42.2292C25.7524 42.2518 25.8396 42.3019 26.0137 42.4023Z" stroke="white" stroke-width="2" stroke-linecap="round" stroke-linejoin="round"/>
</svg>
