<svg width="142" height="48" viewBox="0 0 142 48" fill="none" xmlns="http://www.w3.org/2000/svg">
<rect x="0.5" y="0.5" width="47" height="47" rx="4.606" fill="#54BE73"/>
<path d="M24.079 9.50006C22.5196 11.5286 21.5884 14.0662 21.5884 16.8203C21.5884 19.5744 22.516 22.1119 24.079 24.1405C25.6383 22.1119 26.5696 19.578 26.5696 16.8203C26.5696 14.0626 25.6419 11.5286 24.079 9.50006Z" fill="white"/>
<path d="M27.5841 16.8672C27.5768 19.3506 26.8766 21.7221 25.5591 23.794C27.4577 23.2923 29.2553 22.3141 30.746 20.8233C30.8652 20.7042 30.9843 20.5815 31.0962 20.4552C33.2114 18.1487 29.8978 14.8134 27.5804 16.8672H27.5841Z" fill="white"/>
<path d="M20.5778 17.0151C20.5381 16.979 20.4984 16.9393 20.4587 16.9032C18.1377 14.7772 14.7772 18.1377 16.9032 20.4587C17.0187 20.5814 17.1342 20.7041 17.2534 20.8268C18.791 22.3645 20.6536 23.3571 22.6208 23.8444C21.3105 21.805 20.6103 19.4696 20.5742 17.0187L20.5778 17.0151Z" fill="white"/>
<path d="M10.0237 27.1436C18.5315 27.1436 25.812 32.3847 28.8224 39.8132C28.8476 39.4739 28.8621 39.1274 28.8621 38.7809C28.8621 30.894 22.4695 24.5014 14.5826 24.5014C11.2221 24.5014 8.13227 25.6673 5.6958 27.6093C7.09271 27.306 8.53654 27.14 10.0237 27.14V27.1436Z" fill="white"/>
<path d="M37.9766 27.1436C29.4688 27.1436 22.1883 32.3847 19.1779 39.8132C19.1526 39.4739 19.1382 39.1273 19.1382 38.7808C19.1382 30.8939 25.5307 24.5013 33.4177 24.5013C36.7782 24.5013 39.868 25.6672 42.3045 27.6092C40.9075 27.306 39.4637 27.1399 37.9766 27.1399V27.1436Z" fill="white"/>
<path d="M55.596 33V31.728H55.884C56.172 31.728 56.428 31.68 56.652 31.584C56.876 31.488 57.076 31.32 57.252 31.08C57.444 30.824 57.628 30.456 57.804 29.976L63.012 15.864H66.3L71.316 30C71.476 30.448 71.644 30.8 71.82 31.056C72.012 31.296 72.212 31.472 72.42 31.584C72.644 31.68 72.884 31.728 73.14 31.728H73.572V33H65.652V31.728H66.588C66.828 31.728 67.06 31.656 67.284 31.512C67.508 31.368 67.62 31.128 67.62 30.792C67.62 30.664 67.604 30.536 67.572 30.408C67.556 30.28 67.532 30.16 67.5 30.048C67.468 29.936 67.436 29.84 67.404 29.76L66.564 27.36H60.732L60.036 29.424C60.004 29.552 59.964 29.696 59.916 29.856C59.868 30.016 59.828 30.184 59.796 30.36C59.764 30.52 59.748 30.664 59.748 30.792C59.748 31.096 59.86 31.328 60.084 31.488C60.308 31.648 60.556 31.728 60.828 31.728H61.836V33H55.596ZM61.236 25.896H66.084L64.812 21.96C64.7 21.592 64.58 21.2 64.452 20.784C64.324 20.352 64.204 19.92 64.092 19.488C63.98 19.056 63.876 18.656 63.78 18.288C63.716 18.544 63.636 18.824 63.54 19.128C63.444 19.416 63.348 19.72 63.252 20.04C63.156 20.344 63.052 20.656 62.94 20.976C62.844 21.28 62.748 21.568 62.652 21.84L61.236 25.896ZM74.2903 33V31.728H74.3623C74.7303 31.728 75.0503 31.688 75.3223 31.608C75.5943 31.528 75.8103 31.368 75.9703 31.128C76.1303 30.872 76.2103 30.496 76.2103 30V23.04C76.2103 22.56 76.1383 22.208 75.9943 21.984C75.8503 21.744 75.6503 21.592 75.3943 21.528C75.1383 21.448 74.8343 21.408 74.4823 21.408H74.4103V20.136H79.2583L79.7383 22.008H79.8583C80.0663 21.528 80.3063 21.128 80.5783 20.808C80.8503 20.488 81.1943 20.248 81.6103 20.088C82.0423 19.928 82.5863 19.848 83.2423 19.848C84.1863 19.848 84.8823 20.016 85.3303 20.352C85.7783 20.688 86.0023 21.168 86.0023 21.792C86.0023 22.528 85.7303 23.104 85.1863 23.52C84.6583 23.92 83.9143 24.12 82.9543 24.12C82.9543 23.672 82.9143 23.304 82.8343 23.016C82.7703 22.728 82.6503 22.512 82.4743 22.368C82.3143 22.208 82.0823 22.128 81.7783 22.128C81.3623 22.128 81.0263 22.272 80.7703 22.56C80.5143 22.848 80.3223 23.208 80.1943 23.64C80.0663 24.056 79.9783 24.48 79.9303 24.912C79.8823 25.344 79.8583 25.696 79.8583 25.968V30.12C79.8583 30.584 79.9303 30.936 80.0743 31.176C80.2183 31.4 80.4183 31.552 80.6743 31.632C80.9303 31.696 81.2183 31.728 81.5383 31.728H82.3063V33H74.2903ZM92.4448 33.24C91.3728 33.24 90.5168 32.96 89.8768 32.4C89.2368 31.84 88.9168 30.856 88.9168 29.448V21.768H87.1168V20.544C87.6288 20.544 88.0848 20.44 88.4848 20.232C88.9008 20.024 89.2288 19.792 89.4688 19.536C89.7088 19.28 89.9248 18.96 90.1168 18.576C90.3088 18.176 90.4608 17.704 90.5728 17.16H92.5648V20.136H95.6368V21.768H92.5648V29.208C92.5648 29.928 92.6848 30.456 92.9248 30.792C93.1808 31.128 93.5888 31.296 94.1488 31.296C94.4688 31.296 94.7648 31.28 95.0368 31.248C95.3248 31.2 95.5968 31.144 95.8528 31.08V32.64C95.5968 32.752 95.1728 32.88 94.5808 33.024C94.0048 33.168 93.2928 33.24 92.4448 33.24ZM97.0594 33V31.728H97.1314C97.4994 31.728 97.8194 31.688 98.0914 31.608C98.3634 31.528 98.5794 31.368 98.7394 31.128C98.8994 30.872 98.9794 30.496 98.9794 30V23.04C98.9794 22.56 98.9074 22.208 98.7634 21.984C98.6194 21.744 98.4194 21.592 98.1634 21.528C97.9074 21.448 97.6034 21.408 97.2514 21.408H97.1794V20.136H102.027L102.507 22.008H102.627C102.835 21.528 103.075 21.128 103.347 20.808C103.619 20.488 103.963 20.248 104.379 20.088C104.811 19.928 105.355 19.848 106.011 19.848C106.955 19.848 107.651 20.016 108.099 20.352C108.547 20.688 108.771 21.168 108.771 21.792C108.771 22.528 108.499 23.104 107.955 23.52C107.427 23.92 106.683 24.12 105.723 24.12C105.723 23.672 105.683 23.304 105.603 23.016C105.539 22.728 105.419 22.512 105.243 22.368C105.083 22.208 104.851 22.128 104.547 22.128C104.131 22.128 103.795 22.272 103.539 22.56C103.283 22.848 103.091 23.208 102.963 23.64C102.835 24.056 102.747 24.48 102.699 24.912C102.651 25.344 102.627 25.696 102.627 25.968V30.12C102.627 30.584 102.699 30.936 102.843 31.176C102.987 31.4 103.187 31.552 103.443 31.632C103.699 31.696 103.987 31.728 104.307 31.728H105.075V33H97.0594ZM113.761 33.24C113.057 33.24 112.417 33.104 111.841 32.832C111.281 32.544 110.833 32.112 110.497 31.536C110.161 30.944 109.993 30.208 109.993 29.328C109.993 28.032 110.441 27.072 111.337 26.448C112.233 25.824 113.577 25.48 115.369 25.416L117.337 25.344V24.024C117.337 23.48 117.305 23.008 117.241 22.608C117.177 22.192 117.041 21.872 116.833 21.648C116.625 21.408 116.297 21.288 115.849 21.288C115.449 21.288 115.129 21.4 114.889 21.624C114.649 21.848 114.481 22.16 114.385 22.56C114.289 22.944 114.241 23.384 114.241 23.88C113.169 23.88 112.361 23.76 111.817 23.52C111.273 23.28 111.001 22.864 111.001 22.272C111.001 21.68 111.225 21.208 111.673 20.856C112.121 20.504 112.721 20.248 113.473 20.088C114.225 19.912 115.049 19.824 115.945 19.824C117.625 19.824 118.881 20.128 119.713 20.736C120.561 21.344 120.985 22.4 120.985 23.904V30.024C120.985 30.456 121.025 30.8 121.105 31.056C121.201 31.296 121.353 31.472 121.561 31.584C121.785 31.68 122.073 31.728 122.425 31.728H122.521V33H118.057L117.553 31.344H117.337C116.985 31.776 116.649 32.136 116.329 32.424C116.025 32.696 115.673 32.896 115.273 33.024C114.873 33.168 114.369 33.24 113.761 33.24ZM115.081 31.488C115.545 31.488 115.945 31.368 116.281 31.128C116.617 30.872 116.873 30.512 117.049 30.048C117.241 29.584 117.337 29.04 117.337 28.416V26.616L116.257 26.688C115.617 26.72 115.113 26.848 114.745 27.072C114.377 27.28 114.113 27.584 113.953 27.984C113.793 28.368 113.713 28.848 113.713 29.424C113.713 29.872 113.761 30.256 113.857 30.576C113.953 30.88 114.105 31.112 114.313 31.272C114.521 31.416 114.777 31.488 115.081 31.488ZM123.928 33V31.728H124.216C124.456 31.728 124.704 31.696 124.96 31.632C125.232 31.552 125.456 31.4 125.632 31.176C125.824 30.952 125.92 30.616 125.92 30.168V22.872C125.92 22.44 125.824 22.12 125.632 21.912C125.44 21.704 125.208 21.568 124.936 21.504C124.68 21.44 124.44 21.408 124.216 21.408H123.928V20.136H129.568V30.168C129.568 30.616 129.656 30.952 129.832 31.176C130.024 31.4 130.256 31.552 130.528 31.632C130.8 31.696 131.048 31.728 131.272 31.728H131.56V33H123.928ZM127.624 17.976C127.048 17.976 126.56 17.84 126.16 17.568C125.776 17.28 125.584 16.84 125.584 16.248C125.584 15.64 125.784 15.2 126.184 14.928C126.584 14.656 127.072 14.52 127.648 14.52C128.192 14.52 128.664 14.656 129.064 14.928C129.48 15.2 129.688 15.64 129.688 16.248C129.688 16.84 129.48 17.28 129.064 17.568C128.664 17.84 128.184 17.976 127.624 17.976ZM132.606 33V31.728H132.894C133.134 31.728 133.382 31.696 133.638 31.632C133.91 31.552 134.134 31.4 134.31 31.176C134.502 30.952 134.598 30.616 134.598 30.168V17.496C134.598 17.064 134.502 16.744 134.31 16.536C134.118 16.328 133.886 16.192 133.614 16.128C133.358 16.064 133.118 16.032 132.894 16.032H132.606V14.76H138.246V30.168C138.246 30.616 138.334 30.952 138.51 31.176C138.702 31.4 138.934 31.552 139.206 31.632C139.478 31.696 139.726 31.728 139.95 31.728H140.238V33H132.606Z" fill="white"/>
</svg>
